<svg width="61" height="25" viewBox="0 0 61 25" fill="none" xmlns="http://www.w3.org/2000/svg">
<path d="M14.6547 17.8319C15.784 17.6181 16.5831 17.1852 17.0519 16.533H15.0862C14.1486 16.533 13.3549 16.2016 12.705 15.5388C12.0658 14.876 11.7461 14.0795 11.7461 13.1495C11.7674 12.5294 11.9219 11.9735 12.2096 11.4817C12.4972 10.9793 12.8914 10.5784 13.3922 10.279C13.9036 9.97969 14.4576 9.83002 15.0542 9.83002H21.3987C23.732 9.83002 24.8986 11.1182 24.8986 13.6947C24.8986 14.443 24.824 15.2127 24.6749 16.0038C24.5257 16.9981 24.1582 18.0244 23.5722 19.0827C22.9223 20.248 22.0913 21.2529 21.0791 22.0975C20.0776 22.9314 18.9217 23.5675 17.6112 24.0058C16.3114 24.4441 14.8784 24.6632 13.3123 24.6632C12.4173 24.6632 11.4265 24.5777 10.3398 24.4067C8.84822 24.1501 7.49515 23.7064 6.28059 23.0757C5.07667 22.4343 4.02192 21.6111 3.11632 20.6062C2.21072 19.6012 1.48625 18.4573 0.942887 17.1745C0.314296 15.6564 0 14.117 0 12.5561C0 10.5035 0.516723 8.56318 1.55017 6.73509C2.59427 4.8963 4.06454 3.37823 5.96096 2.18089C8.02786 0.887321 10.3824 0.240539 13.0246 0.240539C13.3656 0.240539 13.8556 0.26192 14.4949 0.304682C15.6349 0.400898 16.7482 0.620056 17.8349 0.962155C18.879 1.30425 19.8592 1.75326 20.7755 2.30917C22.6399 3.53859 23.5722 4.85354 23.5722 6.25401C23.5722 7.08788 23.1886 7.84157 22.4215 8.51507C21.8782 8.99615 21.2229 9.23669 20.4559 9.23669C19.8912 9.23669 19.2892 9.10306 18.65 8.83579H18.618L17.2436 8.11418C16.9453 7.94313 16.7163 7.82553 16.5565 7.76139C15.2247 7.14133 13.9835 6.8313 12.8329 6.8313C11.9059 6.8313 11.0749 7.01839 10.3398 7.39256C9.60466 7.75604 8.99205 8.29592 8.50196 9.01219C8.01188 9.72846 7.68693 10.557 7.52712 11.4978C7.46319 11.7971 7.43123 12.0911 7.43123 12.3797C7.43123 12.7539 7.46319 13.1174 7.52712 13.4702C7.71889 14.4216 8.05982 15.2395 8.54991 15.9237C9.04 16.5972 9.65793 17.121 10.4037 17.4952C11.1602 17.8587 12.0125 18.0404 12.9607 18.0404C13.536 18.0404 14.1007 17.9709 14.6547 17.8319Z" fill="#0CF2C9"/>
<path d="M40.8638 17.8319C41.9931 17.6181 42.7922 17.1852 43.2609 16.533H41.2953C40.3577 16.533 39.564 16.2016 38.9141 15.5388C38.2748 14.876 37.9552 14.0795 37.9552 13.1495C37.9765 12.5294 38.131 11.9735 38.4187 11.4817C38.7063 10.9793 39.1005 10.5784 39.6013 10.279C40.1127 9.97969 40.6667 9.83002 41.2633 9.83002H47.6078C49.9411 9.83002 51.1077 11.1182 51.1077 13.6947C51.1077 14.443 51.0331 15.2127 50.8839 16.0038C50.7348 16.9981 50.3672 18.0244 49.7812 19.0827C49.1313 20.248 48.3003 21.2529 47.2882 22.0975C46.2867 22.9314 45.1307 23.5675 43.8203 24.0058C42.5205 24.4441 41.0875 24.6632 39.5214 24.6632C38.6264 24.6632 37.6356 24.5777 36.5489 24.4067C35.0573 24.1501 33.7042 23.7064 32.4897 23.0757C31.2857 22.4343 30.231 21.6111 29.3254 20.6062C28.4198 19.6012 27.6953 18.4573 27.152 17.1745C26.5234 15.6564 26.2091 14.117 26.2091 12.5561C26.2091 10.5035 26.7258 8.56318 27.7592 6.73509C28.8033 4.8963 30.2736 3.37823 32.17 2.18089C34.2369 0.887321 36.5915 0.240539 39.2337 0.240539C39.5746 0.240539 40.0647 0.26192 40.704 0.304682C41.8439 0.400898 42.9573 0.620056 44.044 0.962155C45.0881 1.30425 46.0683 1.75326 46.9845 2.30917C48.849 3.53859 49.7812 4.85354 49.7812 6.25401C49.7812 7.08788 49.3977 7.84157 48.6306 8.51507C48.0872 8.99615 47.432 9.23669 46.6649 9.23669C46.1003 9.23669 45.4983 9.10306 44.8591 8.83579H44.8271L43.4527 8.11418C43.1544 7.94313 42.9253 7.82553 42.7655 7.76139C41.4338 7.14133 40.1926 6.8313 39.0419 6.8313C38.115 6.8313 37.284 7.01839 36.5489 7.39256C35.8137 7.75604 35.2011 8.29592 34.711 9.01219C34.2209 9.72846 33.896 10.557 33.7362 11.4978C33.6723 11.7971 33.6403 12.0911 33.6403 12.3797C33.6403 12.7539 33.6723 13.1174 33.7362 13.4702C33.928 14.4216 34.2689 15.2395 34.759 15.9237C35.2491 16.5972 35.867 17.121 36.6128 17.4952C37.3692 17.8587 38.2215 18.0404 39.1698 18.0404C39.7451 18.0404 40.3098 17.9709 40.8638 17.8319Z" fill="#0CF2C9"/>
<path d="M57.0047 25C56.2696 25 55.5984 24.8183 54.9911 24.4548C54.3945 24.102 53.9204 23.6263 53.5688 23.0276C53.2172 22.4182 53.0307 21.7394 53.0094 20.991C53.0094 20.2747 53.1852 19.6066 53.5368 18.9865C53.8884 18.3558 54.3625 17.8587 54.9591 17.4952C55.5664 17.1317 56.2376 16.95 56.9728 16.95C58.1021 16.95 59.0503 17.3348 59.8174 18.1046C60.2009 18.468 60.4939 18.901 60.6964 19.4035C60.8988 19.9059 61 20.4244 61 20.9589C61 22.0922 60.6058 23.0543 59.8174 23.8454C59.0503 24.6151 58.1127 25 57.0047 25ZM57.0047 16.2604C56.3229 16.2604 55.6996 16.0947 55.1349 15.7633C54.5809 15.4212 54.1388 14.9669 53.8085 14.4003C53.4889 13.8337 53.3291 13.2083 53.3291 12.5241V3.68826C53.3291 2.66196 53.6913 1.78533 54.4158 1.05837C55.1189 0.35279 55.9713 0 56.9728 0C57.9636 0 58.8212 0.363481 59.5457 1.09044C59.876 1.42185 60.1317 1.8174 60.3128 2.2771C60.5046 2.7368 60.6005 3.21787 60.6005 3.72033V12.5561C60.6005 13.2296 60.4407 13.8497 60.121 14.4163C59.8014 14.9722 59.3699 15.4159 58.8266 15.7473C58.2832 16.0787 57.6759 16.2497 57.0047 16.2604Z" fill="#0CF2C9"/>
</svg>
