<svg width="200" height="129" viewBox="0 0 200 129" fill="none" xmlns="http://www.w3.org/2000/svg">
<path d="M52.1562 56.875C55.4688 56.25 57.8125 54.9844 59.1875 53.0781H53.4219C50.6719 53.0781 48.3438 52.1094 46.4375 50.1719C44.5625 48.2344 43.625 45.9062 43.625 43.1875C43.6875 41.375 44.1406 39.75 44.9844 38.3125C45.8281 36.8438 46.9844 35.6719 48.4531 34.7969C49.9531 33.9219 51.5781 33.4844 53.3281 33.4844H71.9375C78.7812 33.4844 82.2031 37.25 82.2031 44.7812C82.2031 46.9688 81.9844 49.2188 81.5469 51.5312C81.1094 54.4375 80.0312 57.4375 78.3125 60.5312C76.4062 63.9375 73.9688 66.875 71 69.3438C68.0625 71.7812 64.6719 73.6406 60.8281 74.9219C57.0156 76.2031 52.8125 76.8438 48.2188 76.8438C45.5938 76.8438 42.6875 76.5938 39.5 76.0938C35.125 75.3438 31.1562 74.0469 27.5938 72.2031C24.0625 70.3281 20.9688 67.9219 18.3125 64.9844C15.6562 62.0469 13.5312 58.7031 11.9375 54.9531C10.0938 50.5156 9.17188 46.0156 9.17188 41.4531C9.17188 35.4531 10.6875 29.7812 13.7188 24.4375C16.7812 19.0625 21.0938 14.625 26.6562 11.125C32.7188 7.34375 39.625 5.45312 47.375 5.45312C48.375 5.45312 49.8125 5.51562 51.6875 5.64062C55.0312 5.92188 58.2969 6.5625 61.4844 7.5625C64.5469 8.5625 67.4219 9.875 70.1094 11.5C75.5781 15.0938 78.3125 18.9375 78.3125 23.0312C78.3125 25.4688 77.1875 27.6719 74.9375 29.6406C73.3438 31.0469 71.4219 31.75 69.1719 31.75C67.5156 31.75 65.75 31.3594 63.875 30.5781H63.7812L59.75 28.4688C58.875 27.9687 58.2031 27.625 57.7344 27.4375C53.8281 25.625 50.1875 24.7188 46.8125 24.7188C44.0938 24.7188 41.6562 25.2656 39.5 26.3594C37.3438 27.4219 35.5469 29 34.1094 31.0938C32.6719 33.1875 31.7188 35.6094 31.25 38.3594C31.0625 39.2344 30.9688 40.0938 30.9688 40.9375C30.9688 42.0312 31.0625 43.0938 31.25 44.125C31.8125 46.9062 32.8125 49.2969 34.25 51.2969C35.6875 53.2656 37.5 54.7969 39.6875 55.8906C41.9062 56.9531 44.4062 57.4844 47.1875 57.4844C48.875 57.4844 50.5312 57.2812 52.1562 56.875ZM129.031 56.875C132.344 56.25 134.688 54.9844 136.062 53.0781H130.297C127.547 53.0781 125.219 52.1094 123.312 50.1719C121.438 48.2344 120.5 45.9062 120.5 43.1875C120.562 41.375 121.016 39.75 121.859 38.3125C122.703 36.8438 123.859 35.6719 125.328 34.7969C126.828 33.9219 128.453 33.4844 130.203 33.4844H148.812C155.656 33.4844 159.078 37.25 159.078 44.7812C159.078 46.9688 158.859 49.2188 158.422 51.5312C157.984 54.4375 156.906 57.4375 155.188 60.5312C153.281 63.9375 150.844 66.875 147.875 69.3438C144.938 71.7812 141.547 73.6406 137.703 74.9219C133.891 76.2031 129.688 76.8438 125.094 76.8438C122.469 76.8438 119.562 76.5938 116.375 76.0938C112 75.3438 108.031 74.0469 104.469 72.2031C100.938 70.3281 97.8438 67.9219 95.1875 64.9844C92.5312 62.0469 90.4062 58.7031 88.8125 54.9531C86.9688 50.5156 86.0469 46.0156 86.0469 41.4531C86.0469 35.4531 87.5625 29.7812 90.5938 24.4375C93.6562 19.0625 97.9688 14.625 103.531 11.125C109.594 7.34375 116.5 5.45312 124.25 5.45312C125.25 5.45312 126.688 5.51562 128.562 5.64062C131.906 5.92188 135.172 6.5625 138.359 7.5625C141.422 8.5625 144.297 9.875 146.984 11.5C152.453 15.0938 155.188 18.9375 155.188 23.0312C155.188 25.4688 154.062 27.6719 151.812 29.6406C150.219 31.0469 148.297 31.75 146.047 31.75C144.391 31.75 142.625 31.3594 140.75 30.5781H140.656L136.625 28.4688C135.75 27.9687 135.078 27.625 134.609 27.4375C130.703 25.625 127.062 24.7188 123.688 24.7188C120.969 24.7188 118.531 25.2656 116.375 26.3594C114.219 27.4219 112.422 29 110.984 31.0938C109.547 33.1875 108.594 35.6094 108.125 38.3594C107.938 39.2344 107.844 40.0938 107.844 40.9375C107.844 42.0312 107.938 43.0938 108.125 44.125C108.688 46.9062 109.688 49.2969 111.125 51.2969C112.562 53.2656 114.375 54.7969 116.562 55.8906C118.781 56.9531 121.281 57.4844 124.062 57.4844C125.75 57.4844 127.406 57.2812 129.031 56.875ZM176.375 77.8281C174.219 77.8281 172.25 77.2969 170.469 76.2344C168.719 75.2031 167.328 73.8125 166.297 72.0625C165.266 70.2812 164.719 68.2969 164.656 66.1094C164.656 64.0156 165.172 62.0625 166.203 60.25C167.234 58.4062 168.625 56.9531 170.375 55.8906C172.156 54.8281 174.125 54.2969 176.281 54.2969C179.594 54.2969 182.375 55.4219 184.625 57.6719C185.75 58.7344 186.609 60 187.203 61.4688C187.797 62.9375 188.094 64.4531 188.094 66.0156C188.094 69.3281 186.938 72.1406 184.625 74.4531C182.375 76.7031 179.625 77.8281 176.375 77.8281ZM176.375 52.2812C174.375 52.2812 172.547 51.7969 170.891 50.8281C169.266 49.8281 167.969 48.5 167 46.8438C166.062 45.1875 165.594 43.3594 165.594 41.3594V15.5312C165.594 12.5312 166.656 9.96875 168.781 7.84375C170.844 5.78125 173.344 4.75 176.281 4.75C179.188 4.75 181.703 5.8125 183.828 7.9375C184.797 8.90625 185.547 10.0625 186.078 11.4062C186.641 12.75 186.922 14.1563 186.922 15.625V41.4531C186.922 43.4219 186.453 45.2344 185.516 46.8906C184.578 48.5156 183.312 49.8125 181.719 50.7812C180.125 51.75 178.344 52.25 176.375 52.2812Z" fill="#0CF2C9"/>
<path d="M25.6094 112.828C26.8516 112.594 27.7305 112.119 28.2461 111.404H26.084C25.0527 111.404 24.1797 111.041 23.4648 110.314C22.7617 109.588 22.4102 108.715 22.4102 107.695C22.4336 107.016 22.6035 106.406 22.9199 105.867C23.2363 105.316 23.6699 104.877 24.2207 104.549C24.7832 104.221 25.3926 104.057 26.0488 104.057H33.0273C35.5938 104.057 36.877 105.469 36.877 108.293C36.877 109.113 36.7949 109.957 36.6309 110.824C36.4668 111.914 36.0625 113.039 35.418 114.199C34.7031 115.477 33.7891 116.578 32.6758 117.504C31.5742 118.418 30.3027 119.115 28.8613 119.596C27.4316 120.076 25.8555 120.316 24.1328 120.316C23.1484 120.316 22.0586 120.223 20.8633 120.035C19.2227 119.754 17.7344 119.268 16.3984 118.576C15.0742 117.873 13.9141 116.971 12.918 115.869C11.9219 114.768 11.125 113.514 10.5273 112.107C9.83594 110.443 9.49023 108.756 9.49023 107.045C9.49023 104.795 10.0586 102.668 11.1953 100.664C12.3438 98.6484 13.9609 96.9844 16.0469 95.6719C18.3203 94.2539 20.9102 93.5449 23.8164 93.5449C24.1914 93.5449 24.7305 93.5684 25.4336 93.6152C26.6875 93.7207 27.9121 93.9609 29.1074 94.3359C30.2559 94.7109 31.334 95.2031 32.3418 95.8125C34.3926 97.1602 35.418 98.6016 35.418 100.137C35.418 101.051 34.9961 101.877 34.1523 102.615C33.5547 103.143 32.834 103.406 31.9902 103.406C31.3691 103.406 30.707 103.26 30.0039 102.967H29.9688L28.457 102.176C28.1289 101.988 27.877 101.859 27.7012 101.789C26.2363 101.109 24.8711 100.77 23.6055 100.77C22.5859 100.77 21.6719 100.975 20.8633 101.385C20.0547 101.783 19.3809 102.375 18.8418 103.16C18.3027 103.945 17.9453 104.854 17.7695 105.885C17.6992 106.213 17.6641 106.535 17.6641 106.852C17.6641 107.262 17.6992 107.66 17.7695 108.047C17.9805 109.09 18.3555 109.986 18.8945 110.736C19.4336 111.475 20.1133 112.049 20.9336 112.459C21.7656 112.857 22.7031 113.057 23.7461 113.057C24.3789 113.057 25 112.98 25.6094 112.828ZM39.5488 120.035C38.7402 119.684 38.1133 119.197 37.668 118.576C37.2344 117.943 37.0176 117.217 37.0176 116.396C37.0176 115.787 37.1758 115.043 37.4922 114.164L43.6797 98.1855C44.2539 96.7207 45.0859 95.5957 46.1758 94.8105C47.2773 94.0137 48.5312 93.6152 49.9375 93.6152C51.3555 93.6152 52.6094 94.0137 53.6992 94.8105C54.8008 95.5957 55.6387 96.7207 56.2129 98.1855L62.4004 114.164C62.7168 115.09 62.875 115.834 62.875 116.396C62.875 117.217 62.6523 117.943 62.207 118.576C61.7734 119.197 61.1523 119.684 60.3438 120.035C59.7812 120.281 59.207 120.404 58.6211 120.404C57.7891 120.404 57.0156 120.141 56.3008 119.613C55.5977 119.086 55.0762 118.354 54.7363 117.416L54.332 116.221H45.5957L45.1562 117.416C44.8398 118.33 44.3242 119.057 43.6094 119.596C42.9062 120.135 42.127 120.404 41.2715 120.404C40.6855 120.404 40.1113 120.281 39.5488 120.035ZM48.0039 108.979H51.8887L49.9375 102L48.0039 108.979ZM62.7168 116.766C62.7168 116.133 62.7285 115.676 62.752 115.395L65.7051 98.1152C65.8574 97.1074 66.2207 96.2344 66.7949 95.4961C67.3809 94.7461 68.1074 94.2129 68.9746 93.8965C69.7246 93.6152 70.457 93.4746 71.1719 93.4746C72.3906 93.4746 73.4746 93.8379 74.4238 94.5645C75.3848 95.2793 76.0293 96.2344 76.3574 97.4297L79.0117 106.535L81.6836 97.4297C82.0469 96.2227 82.7031 95.2617 83.6523 94.5469C84.6133 93.832 85.6973 93.4746 86.9043 93.4746C87.6074 93.4746 88.3398 93.6152 89.1016 93.8965C89.9805 94.2129 90.7012 94.7402 91.2637 95.4785C91.8262 96.2168 92.1953 97.0957 92.3711 98.1152L95.2891 115.395C95.3359 115.676 95.3594 116.133 95.3594 116.766C95.2539 117.773 94.8086 118.611 94.0234 119.279C93.25 119.947 92.3418 120.281 91.2988 120.281C90.8418 120.281 90.3848 120.211 89.9277 120.07C89.166 119.801 88.5391 119.367 88.0469 118.77C87.5547 118.172 87.2676 117.492 87.1855 116.73L85.9199 106.289L82.6152 117.223C82.3574 118.113 82.0469 118.787 81.6836 119.244C81.332 119.689 80.8867 120 80.3477 120.176C79.7734 120.375 79.293 120.475 78.9062 120.475C78.1094 120.475 77.4121 120.199 76.8145 119.648C76.2168 119.098 75.7656 118.289 75.4609 117.223L72.1035 106.289L70.873 116.73C70.791 117.492 70.5039 118.172 70.0117 118.77C69.5195 119.367 68.8984 119.801 68.1484 120.07C67.6797 120.211 67.2227 120.281 66.7773 120.281C65.7461 120.281 64.8379 119.947 64.0527 119.279C63.2676 118.611 62.8223 117.773 62.7168 116.766ZM98.0137 119.104C97.1934 118.283 96.7832 117.275 96.7832 116.08V97.7461C96.7832 96.5742 97.1875 95.5898 97.9961 94.793C98.8164 93.9844 99.8066 93.5801 100.967 93.5801C101.705 93.5801 102.391 93.7676 103.023 94.1426C103.668 94.5059 104.172 95.0098 104.535 95.6543C104.91 96.2988 105.098 97.0078 105.098 97.7812V116.15C105.098 116.701 104.992 117.24 104.781 117.768C104.582 118.283 104.283 118.74 103.885 119.139C103.064 119.924 102.092 120.316 100.967 120.316C99.7715 120.316 98.7871 119.912 98.0137 119.104ZM108.455 118.998C107.611 117.99 107.189 116.883 107.189 115.676V97.7812C107.189 96.8906 107.424 96.0879 107.893 95.373C108.373 94.6582 109.006 94.1426 109.791 93.8262C110.295 93.6152 110.799 93.5098 111.303 93.5098C112.557 93.5098 113.746 94.166 114.871 95.4785L124.012 106.324V97.7812C124.012 96.6211 124.428 95.625 125.26 94.793C126.08 93.9844 127.053 93.5801 128.178 93.5801C128.74 93.5801 129.273 93.6855 129.777 93.8965C130.293 94.0957 130.732 94.3945 131.096 94.793C131.471 95.1562 131.77 95.6074 131.992 96.1465C132.215 96.6738 132.326 97.2188 132.326 97.7812V116.115C132.326 116.291 132.303 116.566 132.256 116.941C132.139 117.586 131.875 118.166 131.465 118.682C131.066 119.186 130.58 119.578 130.006 119.859C129.432 120.141 128.811 120.281 128.143 120.281C127.346 120.281 126.625 120.082 125.98 119.684C125.512 119.367 125.166 119.062 124.943 118.77L115.504 107.186V116.08C115.504 117.287 115.1 118.295 114.291 119.104C113.506 119.889 112.557 120.281 111.443 120.281C110.236 120.281 109.24 119.854 108.455 118.998ZM150.203 112.828C151.445 112.594 152.324 112.119 152.84 111.404H150.678C149.646 111.404 148.773 111.041 148.059 110.314C147.355 109.588 147.004 108.715 147.004 107.695C147.027 107.016 147.197 106.406 147.514 105.867C147.83 105.316 148.264 104.877 148.814 104.549C149.377 104.221 149.986 104.057 150.643 104.057H157.621C160.188 104.057 161.471 105.469 161.471 108.293C161.471 109.113 161.389 109.957 161.225 110.824C161.061 111.914 160.656 113.039 160.012 114.199C159.297 115.477 158.383 116.578 157.27 117.504C156.168 118.418 154.896 119.115 153.455 119.596C152.025 120.076 150.449 120.316 148.727 120.316C147.742 120.316 146.652 120.223 145.457 120.035C143.816 119.754 142.328 119.268 140.992 118.576C139.668 117.873 138.508 116.971 137.512 115.869C136.516 114.768 135.719 113.514 135.121 112.107C134.43 110.443 134.084 108.756 134.084 107.045C134.084 104.795 134.652 102.668 135.789 100.664C136.938 98.6484 138.555 96.9844 140.641 95.6719C142.914 94.2539 145.504 93.5449 148.41 93.5449C148.785 93.5449 149.324 93.5684 150.027 93.6152C151.281 93.7207 152.506 93.9609 153.701 94.3359C154.85 94.7109 155.928 95.2031 156.936 95.8125C158.986 97.1602 160.012 98.6016 160.012 100.137C160.012 101.051 159.59 101.877 158.746 102.615C158.148 103.143 157.428 103.406 156.584 103.406C155.963 103.406 155.301 103.26 154.598 102.967H154.562L153.051 102.176C152.723 101.988 152.471 101.859 152.295 101.789C150.83 101.109 149.465 100.77 148.199 100.77C147.18 100.77 146.266 100.975 145.457 101.385C144.648 101.783 143.975 102.375 143.436 103.16C142.896 103.945 142.539 104.854 142.363 105.885C142.293 106.213 142.258 106.535 142.258 106.852C142.258 107.262 142.293 107.66 142.363 108.047C142.574 109.09 142.949 109.986 143.488 110.736C144.027 111.475 144.707 112.049 145.527 112.459C146.359 112.857 147.297 113.057 148.34 113.057C148.973 113.057 149.594 112.98 150.203 112.828ZM165.32 114.393C164.793 113.643 164.348 112.852 163.984 112.02C163.633 111.176 163.363 110.332 163.176 109.488C163 108.633 162.912 107.771 162.912 106.904C162.912 106.061 163 105.211 163.176 104.355C163.363 103.5 163.639 102.65 164.002 101.807C164.365 100.951 164.805 100.154 165.32 99.416C166.164 98.1855 167.184 97.125 168.379 96.2344C169.574 95.3438 170.881 94.6641 172.299 94.1953C173.729 93.7148 175.193 93.4746 176.693 93.4746C177.818 93.4746 178.926 93.6094 180.016 93.8789C181.117 94.1484 182.166 94.5469 183.162 95.0742C184.17 95.5898 185.084 96.2109 185.904 96.9375C186.736 97.6641 187.463 98.4902 188.084 99.416C189.689 101.736 190.492 104.232 190.492 106.904C190.492 108.229 190.287 109.529 189.877 110.807C189.467 112.072 188.869 113.268 188.084 114.393C187.463 115.295 186.725 116.127 185.869 116.889C185.014 117.639 184.111 118.26 183.162 118.752C182.225 119.244 181.193 119.637 180.068 119.93C178.943 120.211 177.818 120.352 176.693 120.352C175.193 120.352 173.729 120.117 172.299 119.648C170.881 119.18 169.568 118.494 168.361 117.592C167.166 116.689 166.152 115.623 165.32 114.393ZM171.156 106.904C171.156 108.064 171.402 109.119 171.895 110.068C172.398 111.018 173.066 111.756 173.898 112.283C174.742 112.799 175.662 113.057 176.658 113.057C177.01 113.057 177.373 113.021 177.748 112.951C178.416 112.811 179.02 112.564 179.559 112.213C180.098 111.861 180.572 111.416 180.982 110.877C181.404 110.338 181.727 109.74 181.949 109.084C182.172 108.416 182.283 107.701 182.283 106.939C182.283 106.576 182.248 106.189 182.178 105.779C182.002 104.76 181.656 103.881 181.141 103.143C180.637 102.404 179.998 101.824 179.225 101.402C178.451 100.98 177.607 100.77 176.693 100.77C175.674 100.77 174.742 101.033 173.898 101.561C173.055 102.076 172.387 102.809 171.895 103.758C171.402 104.707 171.156 105.756 171.156 106.904Z" fill="#0CF2C9"/>
</svg>
